<svg xmlns="http://www.w3.org/2000/svg" viewBox="0 0 268.96 268.96"><defs><style>.cls-1{fill:#febc2a;}.cls-2{fill:#fff;}.cls-3{fill:#fcaf19;}.cls-4{fill:none;stroke:#fff;stroke-miterlimit:10;stroke-width:3px;}</style></defs><title>Asset 1</title><g id="Layer_2" data-name="Layer 2"><g id="Layer_1-2" data-name="Layer 1"><circle class="cls-1" cx="134.48" cy="134.48" r="134.48"/><circle class="cls-2" cx="134.48" cy="135.74" r="46.8"/><circle class="cls-3" cx="134.48" cy="135.74" r="32.31"/><path class="cls-2" d="M154.06,74.47h1.14s13-21.67-10.88-25.61c0,0-16.55-3.55-4.73-27.38,0,0-12.75,3.75-22.25,10.19a17.25,17.25,0,0,0-6.71,20c1.36,3.85,5.63,5.07,7.68,7.68,2.39,3-7.06,16-4.73,15.17h.75a64.47,64.47,0,0,1,39.72,0Z"/><path class="cls-2" d="M112.26,196.31c-2.49,5.29-7.81,20.55,11.82,23.79,0,0,16.55,3.55,4.73,27.38,0,0,12.75-3.75,22.25-10.19a17.25,17.25,0,0,0,6.71-20c-1.36-3.85-5.63-5.07-7.68-7.68-1.66-2.11,2.39-9,4.24-12.73a64.52,64.52,0,0,1-42.06-.62Z"/><path class="cls-2" d="M238.51,118.89a17.25,17.25,0,0,0-20-6.71c-3.85,1.36-5.07,5.63-7.68,7.68-3,2.39-16-7.06-15.17-4.73v1.43a64.77,64.77,0,0,1,0,38.35v1.83s21.67,13,25.61-10.88c0,0,3.55-16.55,27.38-4.73C248.7,141.14,245,128.39,238.51,118.89Z"/><path class="cls-2" d="M73.25,114.93v-.19s-21.67-13-25.61,10.88c0,0-3.55,16.55-27.38,4.73,0,0,3.75,12.75,10.19,22.25a17.25,17.25,0,0,0,20,6.71c3.85-1.36,5.07-5.63,7.68-7.68,2.92-2.3,14.92,6.3,15.17,4.92a64.37,64.37,0,0,1,0-41.61Z"/><path class="cls-2" d="M190,103.57l4.16,3.88s24.26-7,9.52-26.15c0,0-9.68-13.88,15.22-23.25,0,0-11.88-6-23.22-7.73a17.25,17.25,0,0,0-18.52,10c-1.64,3.74.66,7.54.38,10.86s-12,6-13.77,7.33A64.68,64.68,0,0,1,190,103.57Z"/><path class="cls-2" d="M107,77.38c-.19-.74-6.31-24.27-25.73-10.54,0,0-14.26,9.11-22.61-16.15,0,0-6.44,11.63-8.67,22.89a17.25,17.25,0,0,0,9.26,18.91c3.67,1.79,7.56-.35,10.87.06s5.46,11.93,6.72,14A64.65,64.65,0,0,1,107,77.38Z"/><path class="cls-2" d="M76.13,163.63c-1.47.41-23.87,7.08-10,25.91,0,0,9.37,14.09-15.73,22.91,0,0,11.75,6.22,23,8.24a17.25,17.25,0,0,0,18.73-9.61c1.72-3.7-.49-7.56-.14-10.87.33-3.12,10.78-5.45,13.53-6.79A64.66,64.66,0,0,1,76.13,163.63Z"/><path class="cls-2" d="M163.14,193.28c1.78,4.91,9.1,20.86,25.59,8.43,0,0,14-9.53,23.09,15.47,0,0,6.08-11.82,8-23.14A17.25,17.25,0,0,0,210,175.42c-3.72-1.67-7.55.58-10.86.26-2.86-.27-5.16-9-6.58-12.61A64.65,64.65,0,0,1,163.14,193.28Z"/><circle class="cls-4" cx="134.48" cy="134.48" r="125.46"/></g></g></svg>