<svg xmlns="http://www.w3.org/2000/svg" viewBox="0 0 313.27 263.55"><defs><style>.cls-1{fill:#fff;}</style></defs><title>Asset 1</title><g id="Layer_2" data-name="Layer 2"><g id="Layer_1-2" data-name="Layer 1"><path class="cls-1" d="M251.16,58.52C189,36,156.17,94.4,156.17,94.4c-19.82,40,14.35,45.79,14.35,45.79,20.16-.34,18.45-13.33,18.45-13.33.68-9.23-10.59-5.13-10.59-5.13,3.76-8.88,14.35-4.78,14.35-4.78,18.11,17.09,0,31.44,0,31.44C173.25,159.33,179.4,175,179.4,175c5.81-4.78,20.5-12,20.5-12,25.29-12,29.39-29,29.39-29,6.49,20.84-46.82,46.82-46.82,46.82-22.21,13.33-18.11,30.75-18.11,30.75,19.48-8.54,66.64-45.45,66.64-45.45C277.48,133,253.9,94.4,253.9,94.4c36.91,39.3-27.34,85.77-27.34,85.77l-60.14,41.69c-26,19.14-10.25,41.69-10.25,41.69C160.61,252.62,202,222.2,202,222.2c26-16.06,63.38-51.94,63.38-51.94C330.07,98.5,251.16,58.52,251.16,58.52Zm-29,62.24c0,1.56-.06,2.52-.06,2.52q0-1.3.06-2.52c-.09-6.7-2-24.48-20-24.48,0,0,20.18-.79,20.13-21.31a29.62,29.62,0,0,1-.14-3.12c.1,1.1.14,2.13.14,3.12.6,6.67,3.75,21.65,19.77,21.31C240.75,96.27,223.31,96.56,222.18,120.76Z"/><path class="cls-1" d="M286.65,4.19c0-1.34,0-2.72-.19-4.19A39.7,39.7,0,0,0,286.65,4.19Z"/><path class="cls-1" d="M313.15,32.75h0Z"/><path class="cls-1" d="M286.65,4.19c.07,27.5-27,28.56-27,28.56,24.16,0,26.76,23.82,26.88,32.81,1.52-32.42,24.87-32.83,26.61-32.81C291.68,33.21,287.46,13.12,286.65,4.19Z"/><path class="cls-1" d="M286.54,65.56q-.08,1.63-.08,3.38S286.57,67.65,286.54,65.56Z"/><path class="cls-1" d="M133,58.95h49L197.22,36l-5.38-.77s-8.27,7.77-10.12,8.33c0,0-16.2,7.09-21.81-17.85h-4.59S147.62,60,121.74,34.47h-4.61Z"/><circle class="cls-1" cx="157.17" cy="20.04" r="5.68"/><circle class="cls-1" cx="119.37" cy="29.64" r="4.83"/><circle class="cls-1" cx="195.55" cy="30.41" r="5.29"/><path class="cls-1" d="M167.87,182.48c-3.08-17.68,7.18-25.37,7.18-25.37-28.45-.77-31.78-23.84-31.78-23.84-18.71-6.41-21.53-27.17-21.53-27.17C106.62,104.57,99.18,91.5,99.18,91.5c-30.5,1.28-33.32-20.76-33.32-20.76,11,16.15,31,12.56,31,12.56-1.28-11.53,1-12.3,1-12.3C104.57,100.47,122,98.16,122,98.16c-.51-16.92,2.56-14.35,2.56-14.35.26,29.47,16.4,37.93,16.4,37.93-.77-18.71,11.79-35.62,11.79-35.62C84.06,17.94,39,76.12,39,76.12c-7.18,1-15.38-2.05-15.38-2.05C8.2,69.45,0,72,0,72c4.1,0,8.71,6.15,8.71,6.15C22.55,99.7,47.16,92,47.16,92c-10.76,15.38-27.68,5.13-27.68,5.13C4.1,131,36.39,135.07,36.39,135.07c-19.73-19-7.43-29-7.43-29,4.61,13.07,12.81,12,12.81,12L42,121c-.77,2.05-9-1.54-9-1.54,1.54,9.74,13.58,16.15,13.58,16.15v2.56c-3.08,4.61-19.22.77-19.22.77,0,10,33.32,45.36,33.32,45.36C75.61,209.65,91,194.52,91,194.52c15.89-15.12-1.28-24.86-1.28-24.86l-.51-12.56c.77-4.61,4.87-9.26,4.87-9.26,7.95-31-18.71-41.49-18.71-41.49l.51-2.56c32.54,11,24.6,50.75,24.6,50.75,17.43,20.25.26,60.74.26,60.74l37.67,27.42c1.79-12.81,13.07-20.5,13.07-20.5C146.6,191.19,167.87,182.48,167.87,182.48ZM66.12,157.11S46.69,148,55.19,138.87a9.31,9.31,0,0,1,8.73-3C68.07,136.8,72.25,141.07,66.12,157.11Z"/></g></g></svg>