<svg xmlns="http://www.w3.org/2000/svg" width="390" height="125" viewBox="0 0 390 125">
<defs>
    <style>
      .cls-1 {
        fill: #fff;
        fill-opacity: 0.35;
        fill-rule: evenodd;
      }
    </style>
  </defs>
  <path id="Polygon_1" data-name="Polygon 1" class="cls-1" d="M153,24.76L114.808,41.692,119.373,83,91.364,52.139,53.237,69.217l20.882-36L45.99,2.464l40.915,8.606,20.742-36.082,4.405,41.322Z"/>
  <path id="Polygon_2" data-name="Polygon 2" class="cls-1" d="M385.5,54.373L354.483,100.45,389,143.98l-53.519-15.185-30.84,46.2-2.059-55.461L249,104.549l52.247-19.092L298.978,30l34.349,43.662Z"/>
  <path id="Polygon_3" data-name="Polygon 3" class="cls-1" d="M67,97L54.2,111.834l10.218,16.714L46.36,120.962,33.622,135.845l1.633-19.522-18.091-7.516,19.071-4.479L37.793,84.8l10.154,16.754ZM94-60S440,23,406,199,481-47,481-47s47.077,1.893-78-9C218.441-72.074,94-60,94-60Z"/>
</svg>
