<svg id="Layer_2" data-name="Layer 2" xmlns="http://www.w3.org/2000/svg" xmlns:xlink="http://www.w3.org/1999/xlink" viewBox="0 0 22.65 75.94"><defs><style>.cls-1{fill:url(#linear-gradient);}.cls-2{mask:url(#mask);}.cls-3{opacity:0.35;}.cls-4{fill:#ddd;}</style><linearGradient id="linear-gradient" x1="11.54" y1="164.33" x2="11.16" y2="16.45" gradientTransform="translate(0 -28.29)" gradientUnits="userSpaceOnUse"><stop offset="0" stop-color="#fff"/><stop offset="1"/></linearGradient><mask id="mask" x="-4.78" y="-1.67" width="32.21" height="81.51" maskUnits="userSpaceOnUse"><g transform="translate(0 -14.06)"><rect class="cls-1" x="-4.78" y="12.39" width="32.21" height="81.51"/></g></mask></defs><title>dots</title><g class="cls-2"><g class="cls-3"><path class="cls-4" d="M5.76,90A5.57,5.57,0,0,1,16.9,90" transform="translate(0 -14.06)"/><path class="cls-4" d="M22.65,84a5.2,5.2,0,1,1,0-10.4" transform="translate(0 -14.06)"/><path class="cls-4" d="M0,73.63a5.2,5.2,0,0,1,5.2,5.2A5.2,5.2,0,0,1,0,84" transform="translate(0 -14.06)"/><circle class="cls-4" cx="11.33" cy="54.04" r="4.62"/><path class="cls-4" d="M22.65,61.86a4.36,4.36,0,0,1,0-8.72" transform="translate(0 -14.06)"/><path class="cls-4" d="M0,53.15A4.36,4.36,0,0,1,4.36,57.5,4.36,4.36,0,0,1,0,61.86" transform="translate(0 -14.06)"/><circle class="cls-4" cx="11.33" cy="32.65" r="3.89"/><path class="cls-4" d="M22.65,39.73a3.45,3.45,0,1,1,0-6.9" transform="translate(0 -14.06)"/><path class="cls-4" d="M0,32.83a3.45,3.45,0,0,1,0,6.9" transform="translate(0 -14.06)"/><circle class="cls-4" cx="11.33" cy="12.83" r="3.05"/><path class="cls-4" d="M0,14.06a2.18,2.18,0,0,1,2.18,2.18A2.18,2.18,0,0,1,0,18.41" transform="translate(0 -14.06)"/><path class="cls-4" d="M22.65,18.41a2.18,2.18,0,1,1,0-4.35" transform="translate(0 -14.06)"/><path class="cls-4" d="M22.65,18.41" transform="translate(0 -14.06)"/><path class="cls-4" d="M22.65,14.06" transform="translate(0 -14.06)"/></g></g></svg>