<svg id="Layer_2" data-name="Layer 2" xmlns="http://www.w3.org/2000/svg" xmlns:xlink="http://www.w3.org/1999/xlink" viewBox="0 0 22.65 75.94"><defs><style>.cls-1{fill:url(#linear-gradient);}.cls-2{mask:url(#mask);}.cls-3{opacity:0.35;}.cls-4{fill:#ddd;}</style><linearGradient id="linear-gradient" x1="11.54" y1="178.39" x2="11.16" y2="30.51" gradientTransform="matrix(1, 0, 0, -1, 0, 132.35)" gradientUnits="userSpaceOnUse"><stop offset="0" stop-color="#fff"/><stop offset="1"/></linearGradient><mask id="mask" x="-4.78" y="-3.9" width="32.21" height="81.51" maskUnits="userSpaceOnUse"><g transform="translate(0)"><rect class="cls-1" x="-4.78" y="-3.9" width="32.21" height="81.51"/></g></mask></defs><title>dotsdown</title><g class="cls-2"><g class="cls-3"><path class="cls-4" d="M5.76,0a5.57,5.57,0,0,0,5.57,5.57A5.57,5.57,0,0,0,16.9,0" transform="translate(0)"/><path class="cls-4" d="M22.65,6a5.2,5.2,0,1,0,0,10.4" transform="translate(0)"/><path class="cls-4" d="M0,16.37a5.2,5.2,0,0,0,5.2-5.2A5.2,5.2,0,0,0,0,6" transform="translate(0)"/><circle class="cls-4" cx="11.33" cy="21.9" r="4.62"/><path class="cls-4" d="M22.65,28.14a4.36,4.36,0,0,0,0,8.72" transform="translate(0)"/><path class="cls-4" d="M0,36.85A4.36,4.36,0,0,0,4.36,32.5,4.36,4.36,0,0,0,0,28.14" transform="translate(0)"/><circle class="cls-4" cx="11.33" cy="43.29" r="3.89"/><path class="cls-4" d="M22.65,50.27a3.45,3.45,0,0,0,0,6.9" transform="translate(0)"/><path class="cls-4" d="M0,57.17a3.45,3.45,0,0,0,0-6.9" transform="translate(0)"/><circle class="cls-4" cx="11.33" cy="63.11" r="3.05"/><path class="cls-4" d="M0,75.94a2.18,2.18,0,0,0,2.18-2.18A2.18,2.18,0,0,0,0,71.59" transform="translate(0)"/><path class="cls-4" d="M22.65,71.59a2.18,2.18,0,1,0,0,4.35" transform="translate(0)"/><path class="cls-4" d="M22.65,71.59" transform="translate(0)"/><path class="cls-4" d="M22.65,75.94" transform="translate(0)"/></g></g></svg>