<svg xmlns="http://www.w3.org/2000/svg" viewBox="0 0 299.62 23.74"><defs><style>.cls-1{fill:#fff;}</style></defs><title>eventNameLogo1</title><g id="Layer_2" data-name="Layer 2"><g id="Layer_1-2" data-name="Layer 1"><path class="cls-1" d="M20,.46V23H18.71V1.83L10,13.24,1.27,1.83V23H0V.46H1.85L10,11.12,18.13.46Z"/><path class="cls-1" d="M38.08,16.11c-2.43,2.43-6.33,3-8.83.33a5.41,5.41,0,0,1-1.58-3.88,6.78,6.78,0,0,1,3.94-5.94,6,6,0,0,1,6.9,1.61l.09-1.88H40l-.89,7.91v.41q0,2,.72,2.13a4,4,0,0,0,2.69-1.56Q43.77,13.78,44,10A7.46,7.46,0,0,0,41.6,4.6C37.73.75,30.76,1.49,27,5.06a11.11,11.11,0,0,0-3.38,7.79,9.11,9.11,0,0,0,2.61,6.51,9.24,9.24,0,0,0,5.26,2.83c1.83.3,4.28.31,5.93-.68l.89,1c-4.17,2.36-9.9,1.18-13.1-2.21a10.26,10.26,0,0,1-3-7.36A12.73,12.73,0,0,1,29.68,1.7c4-1.76,9.72-1.28,12.92,1.94A8.56,8.56,0,0,1,45.3,9.79q-.21,4.17-2,6.11a4.83,4.83,0,0,1-3.65,1.8C38.78,17.6,37.88,17.16,38.08,16.11Zm.17-2.83.13-2.18a4.24,4.24,0,0,0-1.1-2.2,4.68,4.68,0,0,0-6.61,0,5.12,5.12,0,0,0-1.54,3.6,4.2,4.2,0,0,0,1.19,3,4.7,4.7,0,0,0,6.59,0A4.84,4.84,0,0,0,38.26,13.27Z"/><path class="cls-1" d="M94.52,19.39l1,.86a11.62,11.62,0,0,1-15.91-.37A11.53,11.53,0,0,1,95.5,3.2l-1,.86A10.36,10.36,0,0,0,78.72,6.84,10.25,10.25,0,0,0,94.52,19.39Z"/><path class="cls-1" d="M68.61,13.22v-1H62.91v1H65.2v6.5a10.24,10.24,0,0,1-14-14.89,10.32,10.32,0,0,1,14.35-.78l1-.86A11.53,11.53,0,0,0,50.64,19.87a11.4,11.4,0,0,0,15.82.29V13.22Z"/><path class="cls-1" d="M73.09,6.57V23H71.82V6.57Z"/><path class="cls-1" d="M72.46,5.7a2.52,2.52,0,0,0-2.85-2.85A2.52,2.52,0,0,0,72.46,0a2.52,2.52,0,0,0,2.85,2.85A2.52,2.52,0,0,0,72.46,5.7Z"/><path class="cls-1" d="M113.93,8.72,118.39,18l4.37-13.17h1L119,19.37h-1l-4.32-9.16-4.32,9.16h-1L103.5,4.87h1L108.9,18l4.44-9.33Z"/><path class="cls-1" d="M136.38,4.87v.82h-7.94v6h7.94v.82h-7.94v6h7.94v.82h-9V4.87Z"/><path class="cls-1" d="M144.77,4.87a10.67,10.67,0,0,1,6.85,2,6.59,6.59,0,0,1,0,10.51,10.7,10.7,0,0,1-6.85,2h-3.32V4.87Zm-2.3.85v12.8h2.29a9.65,9.65,0,0,0,6.09-1.74,5.85,5.85,0,0,0,0-9.33,9.69,9.69,0,0,0-6.09-1.73Z"/><path class="cls-1" d="M161.27,4.87a10.67,10.67,0,0,1,6.85,2,6.59,6.59,0,0,1,0,10.51,10.7,10.7,0,0,1-6.85,2H158V4.87Zm-2.3.85v12.8h2.29a9.65,9.65,0,0,0,6.09-1.74,5.85,5.85,0,0,0,0-9.33,9.69,9.69,0,0,0-6.09-1.73Z"/><path class="cls-1" d="M176.1,4.87V19.37h-1V4.87Z"/><path class="cls-1" d="M182.53,4.87l11.9,13.5V4.87h1V19.37h-1.56L182.27,6.19V19.37h-1V4.87Z"/><path class="cls-1" d="M232.08,11.34a8.09,8.09,0,0,1-3-1.41,2.71,2.71,0,0,1,0-4.33,4.43,4.43,0,0,1,5.37,0,2.66,2.66,0,0,1,.85,1.08l-.91.29a2.28,2.28,0,0,0-.66-.81,3.24,3.24,0,0,0-3.93,0,2,2,0,0,0,0,3.2,7.75,7.75,0,0,0,2.1,1.11,9.5,9.5,0,0,1,3.62,1.75,3.81,3.81,0,0,1,0,6.07,6.13,6.13,0,0,1-7.49,0,3.85,3.85,0,0,1-1.49-2.34l1-.28a3.1,3.1,0,0,0,1.24,2,5,5,0,0,0,6.1,0,3.08,3.08,0,0,0,0-4.93A8.57,8.57,0,0,0,232.08,11.34Z"/><path class="cls-1" d="M245.57,5.69V19.37h-1V5.69H240V4.87H250.1v.82Z"/><path class="cls-1" d="M267.55,6.85a6.55,6.55,0,0,1,1.74,8.6c-1.93,3.08-5.78,4.34-9.25,4.05-3.29-.27-6.91-2.23-7.91-5.58s1-6.53,4-8.1A10.78,10.78,0,0,1,267.55,6.85ZM261,5.5a8.83,8.83,0,0,0-6.76,2.9,5.67,5.67,0,0,0-.73,6.36c2.49,4.58,9.46,5.1,13.27,2a5.84,5.84,0,0,0,0-9.34A8.88,8.88,0,0,0,261,5.5Z"/><path class="cls-1" d="M278.69,14.35h-3.34v5h-1V4.87H279a6.54,6.54,0,0,1,3.48,1.38,4.2,4.2,0,0,1,0,6.69,6.11,6.11,0,0,1-2.72,1.26l4.13,5.16h-1.24ZM275.35,5.7v7.81h3a5.26,5.26,0,0,0,3.41-1.14,3.46,3.46,0,0,0,0-5.53,5.28,5.28,0,0,0-3.41-1.14Z"/><path class="cls-1" d="M292.45,13.5l-6.15-8.63h1.15L293,12.6l5.51-7.73h1.15l-6.15,8.63v5.86h-1Z"/><path class="cls-1" d="M215.12,12.42h-3.54v.75h1.32v4.1a9.55,9.55,0,0,1-10.85-.49,5.83,5.83,0,0,1,0-9.32,9.52,9.52,0,0,1,11.15-.28l.77-.55a10.84,10.84,0,0,0-9.7-1.39c-3,1-5.64,3.56-5.64,6.88,0,7.38,10.4,9.22,15.26,5.44V13.17h1.22Z"/></g></g></svg>